<svg width="736" height="680" viewBox="0 0 736 680" fill="none" xmlns="http://www.w3.org/2000/svg">
<g opacity="0.3" filter="url(#filter0_f_4_11)">
<path fill-rule="evenodd" clip-rule="evenodd" d="M592.209 353.001C581.173 387.669 555.914 414.19 533.037 442.462C513.326 466.821 492.32 488.535 467.292 507.373C439.414 528.356 413.122 557.558 378.273 558.946C343.311 560.339 313.951 534.407 285.067 514.634C257.911 496.044 238.575 470.427 215.166 447.286C183.126 415.612 127.833 397.642 121.566 353.001C115.507 309.845 159.489 276.35 186.353 242.061C210.162 211.671 236.738 184.755 269.438 164.262C303.015 143.219 339.082 116.019 378.273 121.785C417.401 127.54 434.038 177.499 470.088 193.779C512.116 212.758 574.755 186.58 602.836 223.192C629.703 258.222 605.604 310.919 592.209 353.001Z" fill="#FF9882"/>
<path fill-rule="evenodd" clip-rule="evenodd" d="M592.209 353.001C581.173 387.669 555.914 414.19 533.037 442.462C513.326 466.821 492.32 488.535 467.292 507.373C439.414 528.356 413.122 557.558 378.273 558.946C343.311 560.339 313.951 534.407 285.067 514.634C257.911 496.044 238.575 470.427 215.166 447.286C183.126 415.612 127.833 397.642 121.566 353.001C115.507 309.845 159.489 276.35 186.353 242.061C210.162 211.671 236.738 184.755 269.438 164.262C303.015 143.219 339.082 116.019 378.273 121.785C417.401 127.54 434.038 177.499 470.088 193.779C512.116 212.758 574.755 186.58 602.836 223.192C629.703 258.222 605.604 310.919 592.209 353.001Z" stroke="black"/>
</g>
<defs>
<filter id="filter0_f_4_11" x="0.499886" y="0.5" width="735" height="679" filterUnits="userSpaceOnUse" color-interpolation-filters="sRGB">
<feFlood flood-opacity="0" result="BackgroundImageFix"/>
<feBlend mode="normal" in="SourceGraphic" in2="BackgroundImageFix" result="shape"/>
<feGaussianBlur stdDeviation="60" result="effect1_foregroundBlur_4_11"/>
</filter>
</defs>
</svg>
