<svg width="29" height="29" viewBox="0 0 29 29" fill="none" xmlns="http://www.w3.org/2000/svg">
<path d="M16.5965 22.2979C16.8668 22.2953 17.1276 22.1975 17.3337 22.0216C17.4497 21.9225 17.5451 21.8014 17.6146 21.6651C17.684 21.5289 17.726 21.3802 17.7382 21.2276C17.7504 21.075 17.7325 20.9214 17.6857 20.7757C17.6388 20.6301 17.5639 20.4951 17.4651 20.3786L12.2104 14.1995L17.1355 7.89096C17.2302 7.77078 17.3003 7.63295 17.3419 7.48539C17.3835 7.33783 17.3957 7.18344 17.3778 7.03111C17.36 6.87878 17.3123 6.73151 17.2377 6.59775C17.1631 6.46399 17.0629 6.34639 16.9429 6.25171C16.822 6.14713 16.6809 6.06882 16.5285 6.02171C16.3761 5.97459 16.2157 5.95968 16.0573 5.97791C15.8989 5.99614 15.7459 6.04712 15.6081 6.12764C15.4702 6.20817 15.3503 6.31651 15.256 6.44586L9.74953 13.4946C9.5818 13.7048 9.49181 13.9672 9.49493 14.2368C9.49805 14.5064 9.59409 14.7666 9.76664 14.9729L15.6315 21.89C15.7491 22.0295 15.8978 22.1391 16.0655 22.21C16.2332 22.2809 16.4151 22.311 16.5965 22.2979Z" fill="white"/>
</svg>
